<svg 
 xmlns="http://www.w3.org/2000/svg"
 xmlns:xlink="http://www.w3.org/1999/xlink"
 width="55px" height="51px">
<path fill-rule="evenodd"  fill="rgb(255, 255, 255)"
 d="M53.658,18.029 L53.465,17.853 C53.465,17.853 44.707,9.941 42.097,7.472 C37.321,2.954 31.359,0.317 24.908,0.499 C18.374,0.681 12.263,3.468 7.703,8.347 C3.169,13.196 0.773,19.543 0.955,26.217 C1.138,32.891 3.877,39.096 8.670,43.683 C13.462,48.271 19.732,50.697 26.327,50.512 C29.641,50.420 32.835,49.678 35.821,48.313 L35.969,48.205 C38.846,46.889 41.427,45.036 43.642,42.693 C46.087,40.109 53.765,31.376 53.843,31.288 L54.069,31.032 L47.072,24.736 L53.658,18.029 ZM46.538,30.358 L46.540,30.356 L47.627,31.319 C45.912,33.397 42.142,37.672 40.366,39.553 C38.923,41.079 37.278,42.362 35.474,43.370 C32.655,44.958 29.449,45.844 26.201,45.936 C20.545,46.096 15.186,43.913 11.213,39.808 C7.777,36.263 5.734,31.536 5.485,26.575 C5.202,20.946 7.166,15.566 10.981,11.485 C14.732,7.474 19.728,5.183 25.049,5.034 C30.279,4.888 35.312,6.842 39.218,10.545 C40.970,12.205 45.243,15.760 47.152,17.790 L43.378,21.619 C40.807,19.329 36.719,15.654 35.991,14.947 C35.640,14.605 35.393,14.400 35.375,14.384 C32.580,11.900 29.011,10.589 25.325,10.693 C21.433,10.801 17.802,12.451 15.104,15.337 C12.418,18.211 10.999,21.970 11.108,25.922 C11.216,29.874 12.838,33.546 15.676,36.267 C18.515,38.984 22.228,40.418 26.134,40.310 C29.686,40.210 33.079,38.799 35.691,36.330 L43.871,27.998 L46.538,30.358 ZM40.203,24.923 L32.692,32.465 C30.914,34.293 28.534,35.337 25.992,35.409 C23.378,35.481 20.896,34.522 19.001,32.709 C15.081,28.954 14.909,22.672 18.618,18.704 C20.425,16.773 22.854,15.669 25.460,15.597 C27.927,15.526 29.819,16.032 32.066,17.772 C33.445,18.839 40.203,24.923 40.203,24.923 Z"/>
</svg>